HIERARCHY
ROOT Hips
{
 OFFSET 0.000000 0.000000 0.000000
 CHANNELS 6 Xposition Yposition Zposition Yrotation Xrotation Zrotation
 JOINT Chest
 {
  OFFSET 0.000000 9.585900 0.002600
  CHANNELS 3 Yrotation Xrotation Zrotation
  JOINT Chest2
  {
   OFFSET 0.000000 9.601200 -0.005300
   CHANNELS 3 Yrotation Xrotation Zrotation
   JOINT Chest3
   {
    OFFSET 0.000000 9.561800 0.000000
    CHANNELS 3 Yrotation Xrotation Zrotation
    JOINT Chest4
    {
     OFFSET 0.000000 9.552100 0.000000
     CHANNELS 3 Yrotation Xrotation Zrotation
     JOINT Neck
     {
      OFFSET 0.000000 14.453000 0.000000
      CHANNELS 3 Yrotation Xrotation Zrotation
      JOINT Head
      {
       OFFSET 0.000000 8.936500 -0.011300
       CHANNELS 3 Yrotation Xrotation Zrotation
       End Site
       {
        OFFSET 0.000000 17.073600 -0.006000
       }
      }
     }
     JOINT RightCollar
     {
      OFFSET -2.921100 9.558500 0.000000
      CHANNELS 3 Yrotation Xrotation Zrotation
      JOINT RightShoulder
      {
       OFFSET -13.519700 0.000000 0.000000
       CHANNELS 3 Yrotation Xrotation Zrotation
       JOINT RightElbow
       {
        OFFSET 0.000000 -29.696600 0.000000
        CHANNELS 3 Yrotation Xrotation Zrotation
        JOINT RightWrist
        {
         OFFSET 0.000000 -24.004700 0.000000
         CHANNELS 3 Yrotation Xrotation Zrotation
         End Site
         {
          OFFSET 0.000000 -17.728500 0.000000
         }
        }
       }
      }
     }
     JOINT LeftCollar
     {
      OFFSET 2.921100 9.558500 0.000000
      CHANNELS 3 Yrotation Xrotation Zrotation
      JOINT LeftShoulder
      {
       OFFSET 13.519700 0.000000 0.000000
       CHANNELS 3 Yrotation Xrotation Zrotation
       JOINT LeftElbow
       {
        OFFSET 0.000000 -29.696600 0.000000
        CHANNELS 3 Yrotation Xrotation Zrotation
        JOINT LeftWrist
        {
         OFFSET 0.000000 -24.004700 0.000000
         CHANNELS 3 Yrotation Xrotation Zrotation
         End Site
         {
          OFFSET 0.000000 -17.728500 0.000000
         }
        }
       }
      }
     }
    }
   }
  }
 }
 JOINT RightHip
 {
  OFFSET -7.771700 -0.012900 -0.001300
  CHANNELS 3 Yrotation Xrotation Zrotation
  JOINT RightKnee
  {
   OFFSET 0.000000 -40.869800 0.001200
   CHANNELS 3 Yrotation Xrotation Zrotation
   JOINT RightAnkle
   {
    OFFSET 0.000000 -39.717900 0.002100
    CHANNELS 3 Yrotation Xrotation Zrotation
    JOINT RightToe
    {
     OFFSET 0.000000 -4.965400 11.033500
     CHANNELS 3 Yrotation Xrotation Zrotation
     End Site
     {
      OFFSET 0.000000 -1.423100 5.872300
     }
    }
   }
  }
 }
 JOINT LeftHip
 {
  OFFSET 7.771700 -0.012900 -0.001300
  CHANNELS 3 Yrotation Xrotation Zrotation
  JOINT LeftKnee
  {
   OFFSET 0.000000 -40.869800 0.001200
   CHANNELS 3 Yrotation Xrotation Zrotation
   JOINT LeftAnkle
   {
    OFFSET 0.000000 -39.717900 0.002100
    CHANNELS 3 Yrotation Xrotation Zrotation
    JOINT LeftToe
    {
     OFFSET 0.000000 -4.965400 11.033500
     CHANNELS 3 Yrotation Xrotation Zrotation
     End Site
     {
      OFFSET 0.000000 -1.423100 5.872300
     }
    }
   }
  }
 }
}
MOTION
Frames: 14
Frame Time: 0.008333
-41.043383 52.901088 -6.335988 -176.794047 -16.921221 -2.065836 0.050655 16.530798 0.448400 0.000423 1.673035 0.052007 0.001508 2.796186 0.086937 0.056147 14.610487 0.463810 0.256470 17.250144 0.525004 0.150051 -7.605028 0.492133 0.493445 -2.285778 2.127663 2.770332 -7.002398 -6.440644 -62.267527 -70.119954 96.316306 -10.048566 -19.436613 -10.398145 -6.588570 -1.632336 0.730705 3.527780 -7.477803 9.887632 69.528382 -59.320043 -107.483454 4.509431 -6.895080 9.219464 0.667961 -61.505802 10.400867 176.356868 86.285007 174.023956 -12.781446 -22.581804 13.479265 -0.002535 -0.003114 0.013748 5.493819 -59.948727 -4.741936 119.472164 77.999178 117.427435 -6.941386 -19.972540 -0.499352 0.024069 0.089123 0.007744
-41.043544 52.901587 -6.336795 -176.794396 -16.912849 -2.068454 0.063918 16.529771 0.454869 0.000238 1.671777 0.051860 -0.000572 2.794439 0.086752 0.064532 14.610275 0.466040 0.265111 17.244592 0.505549 0.163297 -7.611276 0.470048 0.476318 -2.311350 2.108306 2.769481 -7.008020 -6.416067 -62.496018 -70.116608 96.572349 -10.058540 -19.411940 -10.437942 -6.618819 -1.728111 0.782674 3.507010 -7.433175 9.859416 69.589367 -59.303804 -107.607570 4.510767 -6.923297 9.210335 0.665910 -61.511071 10.381277 176.098599 86.282837 173.746165 -12.685898 -22.589926 13.474283 0.004718 -0.012704 0.007944 5.478355 -59.958959 -4.730233 119.480305 77.999731 117.428380 -6.934701 -19.973387 -0.499233 0.019182 0.088739 0.007456
-41.046134 52.902019 -6.337682 -176.796738 -16.905735 -2.058092 0.064661 16.523519 0.445484 0.002254 1.672546 0.052109 0.007797 2.795560 0.088066 0.080358 14.604884 0.469114 0.260843 17.242896 0.488025 0.174313 -7.616471 0.450134 0.441925 -2.348505 2.075229 2.774776 -6.995458 -6.380194 -62.666074 -70.108084 96.757746 -10.089267 -19.487557 -10.424014 -6.658238 -1.766289 0.812103 3.503470 -7.414021 9.841243 69.677420 -59.295506 -107.775607 4.508592 -6.954610 9.206240 0.690595 -61.521430 10.382775 176.541305 86.287124 174.219262 -12.908615 -22.568674 13.508900 -0.004324 -0.002983 0.015123 5.492125 -59.963619 -4.750686 119.469132 77.999497 117.414683 -6.932547 -19.973552 -0.499927 0.014504 0.085418 0.007482
-41.048836 52.902134 -6.337767 -176.799071 -16.893642 -2.048372 0.068032 16.515164 0.438614 0.003140 1.671271 0.052269 0.006048 2.793248 0.087422 0.080590 14.603591 0.469474 0.294796 17.227568 0.455551 0.198020 -7.622616 0.416406 0.436801 -2.353306 2.070237 2.782531 -7.021258 -6.381667 -62.711734 -70.091715 96.805191 -10.109313 -19.564283 -10.404315 -6.673058 -1.803435 0.837018 3.498205 -7.396409 9.825367 69.768358 -59.281112 -107.938946 4.506324 -6.987498 9.204097 0.710578 -61.537150 10.393434 177.017458 86.292834 174.729009 -13.120765 -22.548873 13.535578 -0.014458 0.005384 0.019154 5.506373 -59.974127 -4.779165 119.444480 77.990285 117.391619 -6.924391 -19.976836 -0.504221 0.008445 0.086194 0.005127
-41.048448 52.902392 -6.338523 -176.798269 -16.884668 -2.058880 0.081350 16.507137 0.449201 0.003590 1.668908 0.052466 0.007035 2.789696 0.087714 0.077171 14.601185 0.471029 0.297042 17.230016 0.452620 0.220590 -7.630638 0.392916 0.436031 -2.363717 2.053827 2.778710 -7.042227 -6.364031 -62.737327 -70.076976 96.831616 -10.115027 -19.557143 -10.418401 -6.687915 -1.823480 0.856745 3.451090 -7.448628 9.818300 69.782972 -59.246061 -107.975807 4.507773 -7.021467 9.202169 0.694093 -61.539888 10.370118 176.403145 86.290116 174.076182 -12.756043 -22.585019 13.477280 0.000167 -0.018183 -0.000925 5.484905 -59.983884 -4.761129 119.443963 77.988271 117.394006 -6.923073 -19.984263 -0.507176 0.010332 0.091483 0.003482
-41.048271 52.902535 -6.339401 -176.797560 -16.876380 -2.067679 0.086392 16.500424 0.458128 0.003904 1.667525 0.052602 0.007551 2.787417 0.087986 0.086190 14.593637 0.472892 0.306106 17.227331 0.438842 0.228869 -7.631396 0.382813 0.424866 -2.379711 2.029362 2.774660 -7.103608 -6.336043 -62.924035 -70.089353 97.040528 -10.136658 -19.615092 -10.433295 -6.702662 -1.822861 0.862740 3.414892 -7.499528 9.816216 69.820374 -59.219939 -108.049026 4.511218 -7.057379 9.202532 0.685097 -61.542580 10.345500 175.778027 86.283435 173.416964 -12.397466 -22.620840 13.417373 0.012450 -0.036832 -0.016733 5.468995 -59.993016 -4.745877 119.446115 77.988160 117.397758 -6.921920 -19.987470 -0.504913 0.011250 0.091646 0.000149
-41.049429 52.902390 -6.339981 -176.795026 -16.866432 -2.067449 0.086460 16.493265 0.457699 0.004007 1.666117 0.052670 0.007647 2.785031 0.088179 0.086961 14.590331 0.474081 0.319802 17.218561 0.422917 0.236869 -7.633295 0.371462 0.421598 -2.378554 2.026334 2.773323 -7.147858 -6.336390 -63.113992 -70.108784 97.243797 -10.149922 -19.654522 -10.438452 -6.713619 -1.855755 0.881836 3.396107 -7.510097 9.798781 69.877948 -59.196046 -108.145653 4.512918 -7.088703 9.205903 0.690259 -61.551001 10.330409 175.643296 86.282161 173.278038 -12.236853 -22.637074 13.383016 0.014883 -0.041237 -0.021065 5.460105 -60.002454 -4.746584 119.437648 77.987472 117.387117 -6.921095 -19.989600 -0.504495 0.008950 0.092613 -0.001149
-41.049861 52.902422 -6.341645 -176.793772 -16.863166 -2.069412 0.087185 16.493373 0.459434 0.004025 1.664740 0.052717 0.007630 2.782764 0.088305 0.089563 14.578964 0.475468 0.321495 17.224755 0.416301 0.253355 -7.646257 0.347158 0.417778 -2.378806 2.013380 2.771849 -7.184581 -6.328238 -63.245191 -70.115627 97.383966 -10.159872 -19.690742 -10.441291 -6.725642 -1.879912 0.899016 3.385178 -7.509308 9.780235 69.966336 -59.176606 -108.270328 4.514378 -7.067808 9.249609 0.694921 -61.553710 10.334143 175.742853 86.286065 173.381635 -12.159118 -22.642994 13.364690 0.013465 -0.042364 -0.021510 5.448721 -60.007121 -4.740740 119.453432 77.986316 117.404473 -6.919601 -19.991880 -0.508249 0.010806 0.090506 -0.000726
-41.050206 52.902290 -6.343263 -176.792626 -16.859967 -2.069598 0.085153 16.492898 0.459001 0.003918 1.663373 0.052413 0.007848 2.780981 0.088445 0.089734 14.574750 0.475185 0.327006 17.223870 0.410071 0.267602 -7.662254 0.322321 0.421226 -2.390703 1.996393 2.763794 -7.216627 -6.315447 -63.377446 -70.117565 97.530371 -10.174573 -19.730353 -10.437110 -6.742452 -1.923175 0.928472 3.398065 -7.471287 9.752543 70.096565 -59.164433 -108.444411 4.511526 -7.112547 9.236734 0.700057 -61.558892 10.356430 176.078661 86.289910 173.737617 -12.229806 -22.630949 13.367020 0.006381 -0.038597 -0.014838 5.430293 -60.010879 -4.723028 119.499786 77.994097 117.443320 -6.920936 -19.997434 -0.507334 0.013524 0.090874 0.000970
-41.049173 52.901590 -6.343317 -176.796493 -16.847520 -2.074220 0.089493 16.481551 0.465256 0.004111 1.663552 0.052011 0.007793 2.779929 0.088124 0.089345 14.572324 0.473613 0.334352 17.211734 0.397109 0.269119 -7.659624 0.322270 0.418148 -2.402396 1.986164 2.761359 -7.237736 -6.306308 -63.546237 -70.123167 97.715893 -10.194812 -19.771870 -10.427822 -6.752236 -1.949100 0.947489 3.391462 -7.487518 9.725267 70.178271 -59.152282 -108.546039 4.505345 -7.168234 9.224989 0.702008 -61.571786 10.359322 176.006342 86.291011 173.657546 -12.103796 -22.633401 13.341538 0.009892 -0.045985 -0.015205 5.417087 -60.026386 -4.703340 119.521937 77.996269 117.465494 -6.924514 -19.997965 -0.511824 0.018550 0.089133 0.003912
-41.048470 52.901149 -6.344525 -176.794638 -16.843235 -2.077932 0.089262 16.480686 0.469144 0.004021 1.663380 0.052072 0.007213 2.779292 0.087542 0.087120 14.570869 0.471544 0.343283 17.198382 0.383428 0.269746 -7.659521 0.322783 0.415755 -2.417146 1.982960 2.763018 -7.235094 -6.301794 -63.780652 -70.142017 97.966250 -10.216483 -19.818211 -10.419062 -6.754231 -1.960627 0.954897 3.379106 -7.515735 9.705561 70.281296 -59.147781 -108.660883 4.498032 -7.213052 9.236088 0.699530 -61.574761 10.350895 175.864378 86.288535 173.501122 -11.941443 -22.641439 13.311574 0.014083 -0.053710 -0.016085 5.406778 -60.032546 -4.693081 119.531655 77.996363 117.475721 -6.925689 -19.997737 -0.513887 0.022392 0.087381 0.005312
-41.048609 52.900690 -6.345828 -176.793374 -16.841083 -2.076523 0.088083 16.483083 0.468091 0.003457 1.662297 0.052159 0.006559 2.780564 0.087533 0.084132 14.569840 0.470142 0.352134 17.181678 0.366763 0.281351 -7.675256 0.307138 0.419440 -2.450414 1.976646 2.758265 -7.248999 -6.302884 -63.946930 -70.141654 98.151044 -10.239093 -19.870225 -10.414116 -6.755584 -1.975398 0.960635 3.373159 -7.539785 9.678570 70.391659 -59.157851 -108.780146 4.493785 -7.270887 9.252134 0.704466 -61.577995 10.357230 176.073626 86.290668 173.722818 -11.978983 -22.633850 13.309332 0.009858 -0.047781 -0.008914 5.405789 -60.036461 -4.693241 119.545433 77.995901 117.488631 -6.927412 -19.995177 -0.512121 0.023203 0.083539 0.005833
-41.049582 52.899956 -6.346333 -176.789121 -16.835455 -2.071706 0.082086 16.478998 0.462346 0.003304 1.662213 0.052097 0.007712 2.784573 0.087151 0.083505 14.568770 0.469230 0.356122 17.163242 0.353248 0.295280 -7.694995 0.287811 0.419758 -2.458736 1.977064 2.754338 -7.332473 -6.319315 -64.016068 -70.114906 98.238087 -10.262663 -19.926983 -10.416484 -6.769613 -1.997582 0.976076 3.376769 -7.581973 9.642908 70.369722 -59.162290 -108.750435 4.480679 -7.384622 9.251959 0.715569 -61.584622 10.343780 176.143445 86.290706 173.795891 -11.963803 -22.633733 13.303482 0.009120 -0.045470 -0.006869 5.404876 -60.042580 -4.702255 119.554238 77.995857 117.493147 -6.921556 -19.996051 -0.511798 0.020612 0.083891 0.005007
-41.050737 52.899208 -6.346513 -176.792946 -16.829461 -2.065012 0.083310 16.480009 0.456975 0.003412 1.661868 0.052195 0.013397 2.781507 0.084043 0.086151 14.567301 0.467776 0.367741 17.135036 0.334646 0.299602 -7.708662 0.280540 0.414713 -2.473950 1.976242 2.746696 -7.361522 -6.321672 -64.200087 -70.114539 98.440058 -10.283129 -19.988871 -10.425406 -6.785694 -2.013727 0.991361 3.377844 -7.597167 9.621317 70.533290 -59.172614 -108.931577 4.493825 -7.453344 9.307348 0.744302 -61.594208 10.329625 176.436839 86.292359 174.094843 -11.970459 -22.627130 13.306882 0.007269 -0.042215 -0.003011 5.411975 -60.047617 -4.712482 119.558499 77.994091 117.493233 -6.914507 -19.998000 -0.513028 0.016313 0.084271 0.005366
